<?xml version="1.0" standalone="no"?>
<!DOCTYPE svg PUBLIC "-//W3C//DTD SVG 20010904//EN"
 "http://www.w3.org/TR/2001/REC-SVG-20010904/DTD/svg10.dtd">
<svg version="1.0" xmlns="http://www.w3.org/2000/svg"
 width="892.000000pt" height="892.000000pt" viewBox="0 0 892.000000 892.000000"
 preserveAspectRatio="xMidYMid meet">
<metadata>
Created by potrace 1.11, written by Peter Selinger 2001-2013
</metadata>
<g transform="translate(0.000000,892.000000) scale(0.100000,-0.100000)"
fill="#000000" stroke="none">
<path d="M1802 7878 l3 -1043 1030 -1 c567 0 1035 3 1040 7 7 5 9 360 8 1036
-1 565 -2 1031 -2 1036 -1 4 -469 7 -1041 7 l-1040 0 2 -1042z"/>
<path d="M5049 8908 c-1 -17 -1 -2050 0 -2063 1 -7 352 -10 1041 -10 l1040 0
0 1042 0 1043 -1040 0 c-825 0 -1040 -3 -1041 -12z"/>
<path d="M1802 4378 l3 -1043 1038 -2 c960 -1 1037 0 1038 15 1 22 1 2020 0
2050 l-1 22 -1040 0 -1040 0 2 -1042z"/>
<path d="M5049 5393 c-1 -34 0 -1924 0 -2005 l1 -56 1040 0 1040 0 0 1044 0
1044 -1040 0 -1040 0 -1 -27z"/>
<path d="M1800 1042 l0 -1042 1042 2 1041 3 0 1025 c-1 564 -2 1032 -2 1040
-1 13 -123 15 -1041 15 l-1040 0 0 -1043z"/>
<path d="M5050 2065 c-1 -25 -1 -1964 0 -2022 l0 -43 1040 0 1040 0 0 1043 0
1042 -1040 0 c-1033 0 -1040 0 -1040 -20z"/>
</g>
</svg>
